<mxfile host="app.diagrams.net" agent="Mozilla/5.0 (Windows NT 10.0; Win64; x64) AppleWebKit/537.36 (KHTML, like Gecko) Chrome/130.0.0.0 Safari/537.36" version="24.8.2">
  <diagram name="Сторінка-1" id="WQvL7sQCr2SDsEGiw8zH">
    <mxGraphModel dx="1723" dy="1926" grid="1" gridSize="10" guides="1" tooltips="1" connect="1" arrows="1" fold="1" page="1" pageScale="1" pageWidth="827" pageHeight="1169" math="0" shadow="0">
      <root>
        <mxCell id="0" />
        <mxCell id="1" parent="0" />
        <mxCell id="Qf2WwDGo8HAhrz7-kiFl-1" value="Start" style="ellipse;whiteSpace=wrap;html=1;" parent="1" vertex="1">
          <mxGeometry x="162.5" y="-1150" width="120" height="80" as="geometry" />
        </mxCell>
        <mxCell id="Qf2WwDGo8HAhrz7-kiFl-2" value="End" style="ellipse;whiteSpace=wrap;html=1;" parent="1" vertex="1">
          <mxGeometry x="413" y="-510" width="120" height="80" as="geometry" />
        </mxCell>
        <mxCell id="Qf2WwDGo8HAhrz7-kiFl-10" value="" style="edgeStyle=orthogonalEdgeStyle;rounded=0;orthogonalLoop=1;jettySize=auto;html=1;" parent="1" source="Qf2WwDGo8HAhrz7-kiFl-3" target="Qf2WwDGo8HAhrz7-kiFl-4" edge="1">
          <mxGeometry relative="1" as="geometry" />
        </mxCell>
        <mxCell id="Qf2WwDGo8HAhrz7-kiFl-3" value="Input n&amp;nbsp;" style="shape=parallelogram;perimeter=parallelogramPerimeter;whiteSpace=wrap;html=1;fixedSize=1;" parent="1" vertex="1">
          <mxGeometry x="162.5" y="-1040" width="120" height="50" as="geometry" />
        </mxCell>
        <mxCell id="Qf2WwDGo8HAhrz7-kiFl-11" value="" style="edgeStyle=orthogonalEdgeStyle;rounded=0;orthogonalLoop=1;jettySize=auto;html=1;" parent="1" source="Qf2WwDGo8HAhrz7-kiFl-4" target="Qf2WwDGo8HAhrz7-kiFl-5" edge="1">
          <mxGeometry relative="1" as="geometry" />
        </mxCell>
        <mxCell id="Qf2WwDGo8HAhrz7-kiFl-4" value="&amp;nbsp;create two arrays, one of which we fill with elements, and the other is empty" style="rounded=0;whiteSpace=wrap;html=1;" parent="1" vertex="1">
          <mxGeometry x="152.5" y="-960" width="140" height="80" as="geometry" />
        </mxCell>
        <mxCell id="Qf2WwDGo8HAhrz7-kiFl-12" value="" style="edgeStyle=orthogonalEdgeStyle;rounded=0;orthogonalLoop=1;jettySize=auto;html=1;" parent="1" source="Qf2WwDGo8HAhrz7-kiFl-5" target="Qf2WwDGo8HAhrz7-kiFl-6" edge="1">
          <mxGeometry relative="1" as="geometry" />
        </mxCell>
        <mxCell id="Qf2WwDGo8HAhrz7-kiFl-18" value="NO" style="edgeLabel;html=1;align=center;verticalAlign=middle;resizable=0;points=[];" parent="Qf2WwDGo8HAhrz7-kiFl-12" vertex="1" connectable="0">
          <mxGeometry x="-0.0399" y="-1" relative="1" as="geometry">
            <mxPoint as="offset" />
          </mxGeometry>
        </mxCell>
        <mxCell id="Qf2WwDGo8HAhrz7-kiFl-20" value="" style="edgeStyle=orthogonalEdgeStyle;rounded=0;orthogonalLoop=1;jettySize=auto;html=1;" parent="1" source="Qf2WwDGo8HAhrz7-kiFl-5" target="Qf2WwDGo8HAhrz7-kiFl-19" edge="1">
          <mxGeometry relative="1" as="geometry" />
        </mxCell>
        <mxCell id="Qf2WwDGo8HAhrz7-kiFl-21" value="YES" style="edgeLabel;html=1;align=center;verticalAlign=middle;resizable=0;points=[];" parent="Qf2WwDGo8HAhrz7-kiFl-20" vertex="1" connectable="0">
          <mxGeometry x="-0.0281" y="-2" relative="1" as="geometry">
            <mxPoint as="offset" />
          </mxGeometry>
        </mxCell>
        <mxCell id="Qf2WwDGo8HAhrz7-kiFl-5" value="is the element array full?" style="rhombus;whiteSpace=wrap;html=1;" parent="1" vertex="1">
          <mxGeometry x="140" y="-840" width="165" height="80" as="geometry" />
        </mxCell>
        <mxCell id="Qf2WwDGo8HAhrz7-kiFl-6" value="input i" style="shape=parallelogram;perimeter=parallelogramPerimeter;whiteSpace=wrap;html=1;fixedSize=1;" parent="1" vertex="1">
          <mxGeometry x="162.5" y="-690" width="120" height="60" as="geometry" />
        </mxCell>
        <mxCell id="Qf2WwDGo8HAhrz7-kiFl-7" value="i + 1" style="rounded=0;whiteSpace=wrap;html=1;" parent="1" vertex="1">
          <mxGeometry x="10" y="-740" width="100" height="40" as="geometry" />
        </mxCell>
        <mxCell id="Qf2WwDGo8HAhrz7-kiFl-9" value="" style="endArrow=classic;html=1;rounded=0;exitX=0.5;exitY=1;exitDx=0;exitDy=0;" parent="1" source="Qf2WwDGo8HAhrz7-kiFl-1" edge="1">
          <mxGeometry width="50" height="50" relative="1" as="geometry">
            <mxPoint x="180" y="-930" as="sourcePoint" />
            <mxPoint x="223" y="-1040" as="targetPoint" />
          </mxGeometry>
        </mxCell>
        <mxCell id="Qf2WwDGo8HAhrz7-kiFl-16" value="" style="endArrow=classic;html=1;rounded=0;exitX=0;exitY=0.5;exitDx=0;exitDy=0;entryX=0.5;entryY=1;entryDx=0;entryDy=0;" parent="1" source="Qf2WwDGo8HAhrz7-kiFl-6" target="Qf2WwDGo8HAhrz7-kiFl-7" edge="1">
          <mxGeometry width="50" height="50" relative="1" as="geometry">
            <mxPoint x="180" y="-640" as="sourcePoint" />
            <mxPoint x="230" y="-690" as="targetPoint" />
            <Array as="points">
              <mxPoint x="60" y="-660" />
            </Array>
          </mxGeometry>
        </mxCell>
        <mxCell id="Qf2WwDGo8HAhrz7-kiFl-17" value="" style="endArrow=classic;html=1;rounded=0;exitX=0.5;exitY=0;exitDx=0;exitDy=0;entryX=0;entryY=0.5;entryDx=0;entryDy=0;" parent="1" source="Qf2WwDGo8HAhrz7-kiFl-7" target="Qf2WwDGo8HAhrz7-kiFl-5" edge="1">
          <mxGeometry width="50" height="50" relative="1" as="geometry">
            <mxPoint x="180" y="-740" as="sourcePoint" />
            <mxPoint x="230" y="-790" as="targetPoint" />
            <Array as="points">
              <mxPoint x="60" y="-800" />
            </Array>
          </mxGeometry>
        </mxCell>
        <mxCell id="Qf2WwDGo8HAhrz7-kiFl-23" value="" style="edgeStyle=orthogonalEdgeStyle;rounded=0;orthogonalLoop=1;jettySize=auto;html=1;" parent="1" source="Qf2WwDGo8HAhrz7-kiFl-19" target="Qf2WwDGo8HAhrz7-kiFl-22" edge="1">
          <mxGeometry relative="1" as="geometry" />
        </mxCell>
        <mxCell id="Qf2WwDGo8HAhrz7-kiFl-24" value="YES" style="edgeLabel;html=1;align=center;verticalAlign=middle;resizable=0;points=[];" parent="Qf2WwDGo8HAhrz7-kiFl-23" vertex="1" connectable="0">
          <mxGeometry x="-0.1844" y="-2" relative="1" as="geometry">
            <mxPoint as="offset" />
          </mxGeometry>
        </mxCell>
        <mxCell id="Qf2WwDGo8HAhrz7-kiFl-42" value="" style="edgeStyle=orthogonalEdgeStyle;rounded=0;orthogonalLoop=1;jettySize=auto;html=1;" parent="1" source="Qf2WwDGo8HAhrz7-kiFl-19" target="Qf2WwDGo8HAhrz7-kiFl-40" edge="1">
          <mxGeometry relative="1" as="geometry" />
        </mxCell>
        <mxCell id="Qf2WwDGo8HAhrz7-kiFl-19" value="Is i = n - 1; i &amp;gt;= 0?" style="rhombus;whiteSpace=wrap;html=1;" parent="1" vertex="1">
          <mxGeometry x="380" y="-840" width="186" height="80" as="geometry" />
        </mxCell>
        <mxCell id="Qf2WwDGo8HAhrz7-kiFl-30" value="" style="edgeStyle=orthogonalEdgeStyle;rounded=0;orthogonalLoop=1;jettySize=auto;html=1;" parent="1" source="Qf2WwDGo8HAhrz7-kiFl-22" target="Qf2WwDGo8HAhrz7-kiFl-29" edge="1">
          <mxGeometry relative="1" as="geometry" />
        </mxCell>
        <mxCell id="Qf2WwDGo8HAhrz7-kiFl-31" value="YES" style="edgeLabel;html=1;align=center;verticalAlign=middle;resizable=0;points=[];" parent="Qf2WwDGo8HAhrz7-kiFl-30" vertex="1" connectable="0">
          <mxGeometry x="-0.0618" y="-2" relative="1" as="geometry">
            <mxPoint as="offset" />
          </mxGeometry>
        </mxCell>
        <mxCell id="Qf2WwDGo8HAhrz7-kiFl-22" value="Is j = i; j &amp;lt; n?" style="rhombus;whiteSpace=wrap;html=1;" parent="1" vertex="1">
          <mxGeometry x="626" y="-840" width="193" height="80" as="geometry" />
        </mxCell>
        <mxCell id="Qf2WwDGo8HAhrz7-kiFl-25" value="i - 1" style="rounded=0;whiteSpace=wrap;html=1;" parent="1" vertex="1">
          <mxGeometry x="546" y="-930" width="100" height="40" as="geometry" />
        </mxCell>
        <mxCell id="Qf2WwDGo8HAhrz7-kiFl-26" value="" style="endArrow=classic;html=1;rounded=0;exitX=0.5;exitY=0;exitDx=0;exitDy=0;entryX=1;entryY=0.5;entryDx=0;entryDy=0;" parent="1" source="Qf2WwDGo8HAhrz7-kiFl-22" target="Qf2WwDGo8HAhrz7-kiFl-25" edge="1">
          <mxGeometry width="50" height="50" relative="1" as="geometry">
            <mxPoint x="516" y="-810" as="sourcePoint" />
            <mxPoint x="566" y="-860" as="targetPoint" />
            <Array as="points">
              <mxPoint x="723" y="-910" />
            </Array>
          </mxGeometry>
        </mxCell>
        <mxCell id="Qf2WwDGo8HAhrz7-kiFl-28" value="NO" style="edgeLabel;html=1;align=center;verticalAlign=middle;resizable=0;points=[];" parent="Qf2WwDGo8HAhrz7-kiFl-26" vertex="1" connectable="0">
          <mxGeometry x="-0.5139" y="1" relative="1" as="geometry">
            <mxPoint as="offset" />
          </mxGeometry>
        </mxCell>
        <mxCell id="Qf2WwDGo8HAhrz7-kiFl-27" value="" style="endArrow=classic;html=1;rounded=0;exitX=0;exitY=0.5;exitDx=0;exitDy=0;entryX=0.5;entryY=0;entryDx=0;entryDy=0;" parent="1" source="Qf2WwDGo8HAhrz7-kiFl-25" target="Qf2WwDGo8HAhrz7-kiFl-19" edge="1">
          <mxGeometry width="50" height="50" relative="1" as="geometry">
            <mxPoint x="516" y="-810" as="sourcePoint" />
            <mxPoint x="566" y="-860" as="targetPoint" />
            <Array as="points">
              <mxPoint x="473" y="-910" />
            </Array>
          </mxGeometry>
        </mxCell>
        <mxCell id="Qf2WwDGo8HAhrz7-kiFl-34" value="" style="edgeStyle=orthogonalEdgeStyle;rounded=0;orthogonalLoop=1;jettySize=auto;html=1;" parent="1" source="Qf2WwDGo8HAhrz7-kiFl-29" target="Qf2WwDGo8HAhrz7-kiFl-32" edge="1">
          <mxGeometry relative="1" as="geometry" />
        </mxCell>
        <mxCell id="Qf2WwDGo8HAhrz7-kiFl-35" value="YES" style="edgeLabel;html=1;align=center;verticalAlign=middle;resizable=0;points=[];" parent="Qf2WwDGo8HAhrz7-kiFl-34" vertex="1" connectable="0">
          <mxGeometry x="-0.1192" relative="1" as="geometry">
            <mxPoint as="offset" />
          </mxGeometry>
        </mxCell>
        <mxCell id="Qf2WwDGo8HAhrz7-kiFl-29" value="Is elevent [ i ] &amp;lt; element [ j ] ?" style="rhombus;whiteSpace=wrap;html=1;" parent="1" vertex="1">
          <mxGeometry x="622.5" y="-710" width="200" height="80" as="geometry" />
        </mxCell>
        <mxCell id="Qf2WwDGo8HAhrz7-kiFl-36" value="" style="edgeStyle=orthogonalEdgeStyle;rounded=0;orthogonalLoop=1;jettySize=auto;html=1;" parent="1" source="Qf2WwDGo8HAhrz7-kiFl-32" target="Qf2WwDGo8HAhrz7-kiFl-33" edge="1">
          <mxGeometry relative="1" as="geometry" />
        </mxCell>
        <mxCell id="Qf2WwDGo8HAhrz7-kiFl-32" value="We compare and enter the larger element among the array&amp;nbsp;" style="rounded=0;whiteSpace=wrap;html=1;" parent="1" vertex="1">
          <mxGeometry x="632.5" y="-585" width="180" height="60" as="geometry" />
        </mxCell>
        <mxCell id="Qf2WwDGo8HAhrz7-kiFl-33" value="j - 1" style="rounded=0;whiteSpace=wrap;html=1;" parent="1" vertex="1">
          <mxGeometry x="662.5" y="-480" width="120" height="40" as="geometry" />
        </mxCell>
        <mxCell id="Qf2WwDGo8HAhrz7-kiFl-37" value="" style="endArrow=classic;html=1;rounded=0;exitX=1;exitY=0.5;exitDx=0;exitDy=0;entryX=1;entryY=0.5;entryDx=0;entryDy=0;" parent="1" source="Qf2WwDGo8HAhrz7-kiFl-33" target="Qf2WwDGo8HAhrz7-kiFl-22" edge="1">
          <mxGeometry width="50" height="50" relative="1" as="geometry">
            <mxPoint x="646" y="-610" as="sourcePoint" />
            <mxPoint x="696" y="-660" as="targetPoint" />
            <Array as="points">
              <mxPoint x="896" y="-460" />
              <mxPoint x="896" y="-800" />
            </Array>
          </mxGeometry>
        </mxCell>
        <mxCell id="Qf2WwDGo8HAhrz7-kiFl-38" value="" style="endArrow=classic;html=1;rounded=0;exitX=1;exitY=0.5;exitDx=0;exitDy=0;" parent="1" source="Qf2WwDGo8HAhrz7-kiFl-29" edge="1">
          <mxGeometry width="50" height="50" relative="1" as="geometry">
            <mxPoint x="646" y="-610" as="sourcePoint" />
            <mxPoint x="896" y="-670" as="targetPoint" />
          </mxGeometry>
        </mxCell>
        <mxCell id="Qf2WwDGo8HAhrz7-kiFl-39" value="NO" style="edgeLabel;html=1;align=center;verticalAlign=middle;resizable=0;points=[];" parent="Qf2WwDGo8HAhrz7-kiFl-38" vertex="1" connectable="0">
          <mxGeometry x="-0.0027" y="-3" relative="1" as="geometry">
            <mxPoint as="offset" />
          </mxGeometry>
        </mxCell>
        <mxCell id="Qf2WwDGo8HAhrz7-kiFl-43" value="" style="edgeStyle=orthogonalEdgeStyle;rounded=0;orthogonalLoop=1;jettySize=auto;html=1;" parent="1" source="Qf2WwDGo8HAhrz7-kiFl-40" target="Qf2WwDGo8HAhrz7-kiFl-41" edge="1">
          <mxGeometry relative="1" as="geometry" />
        </mxCell>
        <mxCell id="Qf2WwDGo8HAhrz7-kiFl-40" value="Search for MAX elevent among array of sequence&amp;nbsp; lengths" style="rounded=0;whiteSpace=wrap;html=1;" parent="1" vertex="1">
          <mxGeometry x="399.5" y="-720" width="147" height="60" as="geometry" />
        </mxCell>
        <mxCell id="Qf2WwDGo8HAhrz7-kiFl-44" value="" style="edgeStyle=orthogonalEdgeStyle;rounded=0;orthogonalLoop=1;jettySize=auto;html=1;" parent="1" source="Qf2WwDGo8HAhrz7-kiFl-41" target="Qf2WwDGo8HAhrz7-kiFl-2" edge="1">
          <mxGeometry relative="1" as="geometry" />
        </mxCell>
        <mxCell id="Qf2WwDGo8HAhrz7-kiFl-41" value="Output : result&amp;nbsp;" style="shape=parallelogram;perimeter=parallelogramPerimeter;whiteSpace=wrap;html=1;fixedSize=1;" parent="1" vertex="1">
          <mxGeometry x="399.5" y="-600" width="146.5" height="60" as="geometry" />
        </mxCell>
      </root>
    </mxGraphModel>
  </diagram>
</mxfile>
